<svg width="13" height="13" viewBox="0 0 13 13" fill="none" xmlns="http://www.w3.org/2000/svg">
<g id="Icons">
<path id="Vector" d="M6.40806 0.962402C6.62016 0.962402 6.81383 1.0843 6.90604 1.27886L8.48762 4.5911L12.0196 5.12087C12.2271 5.15134 12.4 5.29902 12.4646 5.50296C12.5292 5.7069 12.4761 5.92724 12.3286 6.07727L9.76717 8.66048L10.3712 12.3079C10.4058 12.5189 10.3205 12.7322 10.1499 12.8588C9.97927 12.9854 9.75103 12.9994 9.56659 12.8986L6.40806 11.1828L3.25183 12.8963C3.06508 12.9971 2.83915 12.983 2.66854 12.8565C2.49793 12.7299 2.41032 12.5166 2.44491 12.3056L3.04895 8.65814L0.487538 6.07727C0.33768 5.92724 0.286959 5.70455 0.351513 5.50296C0.416067 5.30136 0.58898 5.15368 0.796475 5.12087L4.3285 4.5911L5.91007 1.27886C6.0046 1.0843 6.19595 0.962402 6.40806 0.962402ZM6.40806 2.81425L5.19767 5.35059C5.11698 5.51702 4.96251 5.63423 4.78038 5.66236L2.05297 6.07023L4.03339 8.06508C4.1602 8.194 4.22014 8.37685 4.19017 8.55734L3.72215 11.3633L6.14754 10.0459C6.31123 9.95678 6.50719 9.95678 6.66858 10.0459L9.09396 11.3633L8.62825 8.55969C8.59828 8.37919 8.65592 8.19635 8.78503 8.06742L10.7654 6.07258L8.03804 5.66236C7.85822 5.63423 7.70144 5.51937 7.62075 5.35059L6.40806 2.81425Z" fill="#737373"/>
</g>
</svg>
