<svg width="13" height="13" viewBox="0 0 13 13" fill="none" xmlns="http://www.w3.org/2000/svg">
<g id="Icons">
<path id="Vector" d="M6.74579 1.38434C6.62366 1.12649 6.36559 0.962402 6.08217 0.962402C5.79875 0.962402 5.54298 1.12649 5.41855 1.38434L3.93693 4.48561L0.628052 4.98256C0.351544 5.02476 0.121121 5.22166 0.0358641 5.49124C-0.0493925 5.76081 0.0197344 6.05851 0.217898 6.25776L2.61891 8.67455L2.05207 12.0899C2.00598 12.3712 2.12119 12.6572 2.34931 12.8236C2.57743 12.9901 2.87929 13.0112 3.12814 12.8776L6.08447 11.2718L9.0408 12.8776C9.28966 13.0112 9.59151 12.9924 9.81963 12.8236C10.0477 12.6549 10.163 12.3712 10.1169 12.0899L9.54773 8.67455L11.9487 6.25776C12.1469 6.05851 12.2183 5.76081 12.1308 5.49124C12.0432 5.22166 11.8151 5.02476 11.5386 4.98256L8.22741 4.48561L6.74579 1.38434Z" fill="#737373"/>
</g>
</svg>
