<svg width="13" height="13" viewBox="0 0 13 13" fill="none" xmlns="http://www.w3.org/2000/svg">
<g id="Icons">
<path id="Vector" d="M6.08087 9.78566L6.08317 9.78332L6.69149 10.1138L8.6547 11.1804L8.2745 8.89255L8.16389 8.21979L8.64087 7.73925L10.2561 6.11477L8.04177 5.78191L7.36663 5.68111L7.06938 5.05758L6.08317 2.99944L6.08087 3.00647V9.78566ZM10.1156 12.0899C10.1617 12.3712 10.0465 12.6572 9.81833 12.8236C9.59021 12.9901 9.28836 13.0112 9.0395 12.8776L6.08317 11.2718L3.12684 12.8776C2.87799 13.0112 2.57613 12.9901 2.34801 12.8236C2.11989 12.6572 2.00468 12.3712 2.05077 12.0899L2.61991 8.67455L0.218904 6.25776C0.0207402 6.05851 -0.0506909 5.76081 0.0368699 5.49124C0.124431 5.22166 0.35255 5.02476 0.629057 4.98256L3.93793 4.48561L5.42186 1.38434C5.54629 1.12649 5.80206 0.962402 6.08548 0.962402C6.3689 0.962402 6.62467 1.12649 6.7491 1.38434L8.23072 4.48561L11.5396 4.98256C11.8161 5.02476 12.0465 5.22166 12.1318 5.49124C12.217 5.76081 12.1479 6.05851 11.9497 6.25776L9.54874 8.67455L10.1156 12.0899Z" fill="#737373"/>
</g>
</svg>
